<svg width="24" height="24" viewBox="0 0 24 24" fill="none" xmlns="http://www.w3.org/2000/svg">
<path d="M16.258 22.9999H1.35484C1.26073 22.9999 1.17047 22.9625 1.10393 22.896C1.03738 22.8294 1 22.7392 1 22.6451V1.35484C1 1.26073 1.03738 1.17047 1.10393 1.10393C1.17047 1.03738 1.26073 1 1.35484 1H12C12.0941 1.00002 12.1843 1.03742 12.2508 1.10397L16.5089 5.36202C16.5754 5.42855 16.6128 5.51878 16.6128 5.61289V11.3364C16.6128 11.4305 16.5755 11.5208 16.5089 11.5873C16.4424 11.6539 16.3521 11.6912 16.258 11.6912C16.1639 11.6912 16.0736 11.6539 16.0071 11.5873C15.9406 11.5208 15.9032 11.4305 15.9032 11.3364V5.75979L11.8531 1.70967H1.70967V22.2902H16.0891C16.1432 22.261 16.2039 22.2463 16.2654 22.2475C16.3268 22.2488 16.3869 22.266 16.4397 22.2975C16.4925 22.329 16.5362 22.3737 16.5666 22.4271C16.5969 22.4806 16.6129 22.541 16.6128 22.6025V22.6451C16.6128 22.7392 16.5755 22.8294 16.5089 22.896C16.4424 22.9625 16.3521 22.9999 16.258 22.9999Z" fill="#8AD4E0"/>
<path d="M16.2574 5.96771H12.709C12.4267 5.96771 12.156 5.85556 11.9563 5.65592C11.7567 5.45629 11.6445 5.18552 11.6445 4.9032V1.35482C11.6445 1.28465 11.6654 1.21606 11.7044 1.15773C11.7433 1.09939 11.7988 1.05392 11.8636 1.02707C11.9284 1.00022 11.9998 0.99319 12.0686 1.00688C12.1374 1.02056 12.2006 1.05434 12.2502 1.10395L16.5083 5.362C16.5579 5.41163 16.5917 5.47485 16.6054 5.54367C16.619 5.61249 16.612 5.68382 16.5852 5.74865C16.5583 5.81348 16.5129 5.86889 16.4545 5.90788C16.3962 5.94687 16.3276 5.96769 16.2574 5.96771ZM12.3542 2.2114V4.9032C12.3542 4.99731 12.3916 5.08756 12.4581 5.1541C12.5247 5.22065 12.6149 5.25803 12.709 5.25803H15.4008L12.3542 2.2114Z" fill="#8AD4E0"/>
<path d="M5.61277 9.87099H3.48374C3.38963 9.87099 3.29938 9.8336 3.23284 9.76706C3.16629 9.70051 3.12891 9.61026 3.12891 9.51615V7.38712C3.12891 7.29302 3.16629 7.20276 3.23284 7.13622C3.29938 7.06967 3.38963 7.03229 3.48374 7.03229H5.61277C5.70688 7.03229 5.79713 7.06967 5.86368 7.13622C5.93022 7.20276 5.96761 7.29302 5.96761 7.38712V9.51615C5.96761 9.61026 5.93022 9.70051 5.86368 9.76706C5.79713 9.8336 5.70688 9.87099 5.61277 9.87099ZM3.83858 9.16131H5.25793V7.74196H3.83858V9.16131Z" fill="#8AD4E0"/>
<path d="M14.1286 8.0967H7.74156C7.64745 8.0967 7.55719 8.05931 7.49065 7.99277C7.4241 7.92622 7.38672 7.83597 7.38672 7.74186C7.38672 7.64775 7.4241 7.5575 7.49065 7.49095C7.55719 7.42441 7.64745 7.38702 7.74156 7.38702H14.1286C14.2227 7.38702 14.313 7.42441 14.3795 7.49095C14.4461 7.5575 14.4835 7.64775 14.4835 7.74186C14.4835 7.83597 14.4461 7.92622 14.3795 7.99277C14.313 8.05931 14.2227 8.0967 14.1286 8.0967Z" fill="#8AD4E0"/>
<path d="M14.1286 9.51601H7.74156C7.64745 9.51601 7.55719 9.47863 7.49065 9.41208C7.4241 9.34554 7.38672 9.25528 7.38672 9.16117C7.38672 9.06706 7.4241 8.97681 7.49065 8.91026C7.55719 8.84372 7.64745 8.80634 7.74156 8.80634H14.1286C14.2227 8.80634 14.313 8.84372 14.3795 8.91026C14.4461 8.97681 14.4835 9.06706 14.4835 9.16117C14.4835 9.25528 14.4461 9.34554 14.3795 9.41208C14.313 9.47863 14.2227 9.51601 14.1286 9.51601Z" fill="#8AD4E0"/>
<path d="M5.61277 14.129H3.48374C3.38963 14.129 3.29938 14.0916 3.23284 14.0251C3.16629 13.9585 3.12891 13.8683 3.12891 13.7741V11.6451C3.12891 11.551 3.16629 11.4608 3.23284 11.3942C3.29938 11.3277 3.38963 11.2903 3.48374 11.2903H5.61277C5.70688 11.2903 5.79713 11.3277 5.86368 11.3942C5.93022 11.4608 5.96761 11.551 5.96761 11.6451V13.7741C5.96761 13.8683 5.93022 13.9585 5.86368 14.0251C5.79713 14.0916 5.70688 14.129 5.61277 14.129ZM3.83858 13.4193H5.25793V12H3.83858V13.4193Z" fill="#8AD4E0"/>
<path d="M11.6448 12.3548H7.74156C7.64745 12.3548 7.55719 12.3174 7.49065 12.2508C7.4241 12.1843 7.38672 12.094 7.38672 11.9999C7.38672 11.9058 7.4241 11.8156 7.49065 11.749C7.55719 11.6825 7.64745 11.6451 7.74156 11.6451H11.6448C11.7389 11.6451 11.8291 11.6825 11.8957 11.749C11.9622 11.8156 11.9996 11.9058 11.9996 11.9999C11.9996 12.094 11.9622 12.1843 11.8957 12.2508C11.8291 12.3174 11.7389 12.3548 11.6448 12.3548Z" fill="#8AD4E0"/>
<path d="M10.5803 13.7741H7.74156C7.64745 13.7741 7.55719 13.7367 7.49065 13.6701C7.4241 13.6036 7.38672 13.5133 7.38672 13.4192C7.38672 13.3251 7.4241 13.2349 7.49065 13.1683C7.55719 13.1018 7.64745 13.0644 7.74156 13.0644H10.5803C10.6744 13.0644 10.7646 13.1018 10.8312 13.1683C10.8977 13.2349 10.9351 13.3251 10.9351 13.4192C10.9351 13.5133 10.8977 13.6036 10.8312 13.6701C10.7646 13.7367 10.6744 13.7741 10.5803 13.7741Z" fill="#8AD4E0"/>
<path d="M5.61277 18.387H3.48374C3.38963 18.387 3.29938 18.3497 3.23284 18.2831C3.16629 18.2166 3.12891 18.1263 3.12891 18.0322V15.9032C3.12891 15.8091 3.16629 15.7188 3.23284 15.6523C3.29938 15.5857 3.38963 15.5483 3.48374 15.5483H5.61277C5.70688 15.5483 5.79713 15.5857 5.86368 15.6523C5.93022 15.7188 5.96761 15.8091 5.96761 15.9032V18.0322C5.96761 18.1263 5.93022 18.2166 5.86368 18.2831C5.79713 18.3497 5.70688 18.387 5.61277 18.387ZM3.83858 17.6774H5.25793V16.258H3.83858V17.6774Z" fill="#8AD4E0"/>
<path d="M9.87058 16.6129H7.74156C7.64745 16.6129 7.55719 16.5755 7.49065 16.5089C7.4241 16.4424 7.38672 16.3521 7.38672 16.258C7.38672 16.1639 7.4241 16.0737 7.49065 16.0071C7.55719 15.9406 7.64745 15.9032 7.74156 15.9032H9.87058C9.96469 15.9032 10.0549 15.9406 10.1215 16.0071C10.188 16.0737 10.2254 16.1639 10.2254 16.258C10.2254 16.3521 10.188 16.4424 10.1215 16.5089C10.0549 16.5755 9.96469 16.6129 9.87058 16.6129Z" fill="#8AD4E0"/>
<path d="M9.87058 18.0322H7.74156C7.64745 18.0322 7.55719 17.9948 7.49065 17.9283C7.4241 17.8617 7.38672 17.7715 7.38672 17.6773C7.38672 17.5832 7.4241 17.493 7.49065 17.4264C7.55719 17.3599 7.64745 17.3225 7.74156 17.3225H9.87058C9.96469 17.3225 10.0549 17.3599 10.1215 17.4264C10.188 17.493 10.2254 17.5832 10.2254 17.6773C10.2254 17.7715 10.188 17.8617 10.1215 17.9283C10.0549 17.9948 9.96469 18.0322 9.87058 18.0322Z" fill="#8AD4E0"/>
<path d="M16.9697 23C15.7767 23 14.6104 22.6462 13.6184 21.9834C12.6264 21.3206 11.8532 20.3785 11.3967 19.2762C10.9401 18.174 10.8207 16.9611 11.0534 15.791C11.2862 14.6208 11.8607 13.546 12.7043 12.7023C13.5479 11.8587 14.6228 11.2842 15.7929 11.0515C16.963 10.8187 18.1759 10.9382 19.2782 11.3947C20.3804 11.8513 21.3225 12.6245 21.9854 13.6165C22.6482 14.6085 23.002 15.7747 23.002 16.9678C23.0002 18.5671 22.3641 20.1004 21.2332 21.2312C20.1023 22.3621 18.569 22.9982 16.9697 23ZM16.9697 11.6452C15.917 11.6452 14.888 11.9574 14.0127 12.5422C13.1374 13.1271 12.4552 13.9584 12.0523 14.9309C11.6495 15.9035 11.5441 16.9737 11.7494 18.0062C11.9548 19.0386 12.4617 19.987 13.2061 20.7314C13.9505 21.4758 14.8989 21.9827 15.9314 22.1881C16.9638 22.3934 18.034 22.288 19.0066 21.8852C19.9792 21.4823 20.8104 20.8001 21.3953 19.9248C21.9801 19.0496 22.2923 18.0205 22.2923 16.9678C22.2907 15.5566 21.7294 14.2038 20.7316 13.2059C19.7338 12.2081 18.3809 11.6468 16.9697 11.6452Z" fill="#8AD4E0"/>
<path d="M19.8077 18.3871H15.5496C15.4768 18.3871 15.4057 18.3647 15.346 18.3229C15.2864 18.2811 15.241 18.222 15.2161 18.1536L13.8819 14.4838H13.0658C12.9717 14.4838 12.8814 14.4465 12.8149 14.3799C12.7483 14.3134 12.7109 14.2231 12.7109 14.129C12.7109 14.0349 12.7483 13.9446 12.8149 13.8781C12.8814 13.8116 12.9717 13.7742 13.0658 13.7742H14.1303C14.2031 13.7741 14.2742 13.7965 14.3339 13.8383C14.3936 13.8801 14.4389 13.9392 14.4638 14.0077L15.798 17.6774H19.8077C19.9018 17.6774 19.992 17.7148 20.0586 17.7813C20.1251 17.8479 20.1625 17.9381 20.1625 18.0322C20.1625 18.1263 20.1251 18.2166 20.0586 18.2831C19.992 18.3497 19.9018 18.3871 19.8077 18.3871Z" fill="#8AD4E0"/>
<path d="M19.804 17.3226H16.2557C16.1785 17.3225 16.1036 17.2973 16.042 17.2509C15.9805 17.2044 15.9358 17.1391 15.9147 17.065L15.205 14.5811C15.19 14.5283 15.1874 14.4728 15.1974 14.4188C15.2075 14.3649 15.2299 14.314 15.263 14.2702C15.296 14.2264 15.3388 14.1908 15.3879 14.1663C15.437 14.1418 15.4911 14.1291 15.546 14.129H20.5137C20.5686 14.1291 20.6227 14.1418 20.6718 14.1663C20.7209 14.1908 20.7637 14.2264 20.7967 14.2702C20.8298 14.314 20.8522 14.3649 20.8623 14.4188C20.8723 14.4728 20.8697 14.5283 20.8547 14.5811L20.145 17.065C20.1239 17.1391 20.0792 17.2044 20.0177 17.2509C19.9561 17.2973 19.8811 17.3225 19.804 17.3226ZM16.5232 16.6129H19.5365L20.0432 14.8387H16.0169L16.5232 16.6129Z" fill="#8AD4E0"/>
<path d="M15.9044 20.8709C15.6938 20.8709 15.488 20.8085 15.3129 20.6915C15.1379 20.5745 15.0014 20.4083 14.9209 20.2138C14.8403 20.0193 14.8192 19.8052 14.8603 19.5987C14.9014 19.3922 15.0028 19.2025 15.1516 19.0537C15.3005 18.9048 15.4902 18.8034 15.6967 18.7623C15.9032 18.7213 16.1172 18.7423 16.3117 18.8229C16.5062 18.9035 16.6725 19.0399 16.7895 19.215C16.9064 19.39 16.9689 19.5959 16.9689 19.8064C16.9689 20.0887 16.8567 20.3595 16.6571 20.5591C16.4574 20.7588 16.1867 20.8709 15.9044 20.8709ZM15.9044 19.4516C15.8342 19.4516 15.7656 19.4724 15.7072 19.5114C15.6489 19.5503 15.6034 19.6058 15.5765 19.6706C15.5497 19.7354 15.5426 19.8068 15.5563 19.8756C15.57 19.9445 15.6038 20.0077 15.6534 20.0573C15.7031 20.1069 15.7663 20.1407 15.8351 20.1544C15.904 20.1681 15.9753 20.1611 16.0401 20.1342C16.105 20.1074 16.1604 20.0619 16.1994 20.0035C16.2384 19.9452 16.2592 19.8766 16.2592 19.8064C16.2592 19.7123 16.2218 19.622 16.1553 19.5555C16.0887 19.4889 15.9985 19.4516 15.9044 19.4516Z" fill="#8AD4E0"/>
<path d="M19.0958 20.8709C18.8852 20.8709 18.6794 20.8085 18.5044 20.6915C18.3293 20.5745 18.1929 20.4083 18.1123 20.2138C18.0317 20.0193 18.0106 19.8052 18.0517 19.5987C18.0928 19.3922 18.1942 19.2025 18.343 19.0537C18.4919 18.9048 18.6816 18.8034 18.8881 18.7623C19.0946 18.7213 19.3086 18.7423 19.5031 18.8229C19.6976 18.9035 19.8639 19.0399 19.9809 19.215C20.0978 19.39 20.1603 19.5959 20.1603 19.8064C20.1603 20.0887 20.0481 20.3595 19.8485 20.5591C19.6489 20.7588 19.3781 20.8709 19.0958 20.8709ZM19.0958 19.4516C19.0256 19.4516 18.957 19.4724 18.8986 19.5114C18.8403 19.5503 18.7948 19.6058 18.7679 19.6706C18.7411 19.7354 18.7341 19.8068 18.7477 19.8756C18.7614 19.9445 18.7952 20.0077 18.8449 20.0573C18.8945 20.1069 18.9577 20.1407 19.0265 20.1544C19.0954 20.1681 19.1667 20.1611 19.2316 20.1342C19.2964 20.1074 19.3518 20.0619 19.3908 20.0035C19.4298 19.9452 19.4506 19.8766 19.4506 19.8064C19.4506 19.7123 19.4132 19.622 19.3467 19.5555C19.2801 19.4889 19.1899 19.4516 19.0958 19.4516Z" fill="#8AD4E0"/>
</svg>
