<svg width="24" height="24" viewBox="0 0 24 24" fill="none" xmlns="http://www.w3.org/2000/svg">
<path d="M17.1873 2.00021C16.1408 2.00145 15.1232 2.3438 14.2887 2.97537C13.4543 3.60695 12.8484 4.49332 12.563 5.50018H2.31249C1.96439 5.50018 1.63056 5.63846 1.38442 5.8846C1.13828 6.13074 1 6.46457 1 6.81267C1 7.16076 1.13828 7.49459 1.38442 7.74073C1.63056 7.98687 1.96439 8.12515 2.31249 8.12515H2.74998C2.87686 10.7108 4.11497 13.0426 5.97432 14.2501C4.12809 15.4576 2.88998 17.7894 2.74998 20.375H2.31249C1.96439 20.375 1.63056 20.5133 1.38442 20.7594C1.13828 21.0056 1 21.3394 1 21.6875C1 22.0356 1.13828 22.3694 1.38442 22.6156C1.63056 22.8617 1.96439 23 2.31249 23H15.4374C15.7854 23 16.1193 22.8617 16.3654 22.6156C16.6116 22.3694 16.7498 22.0356 16.7498 21.6875C16.7498 21.3394 16.6116 21.0056 16.3654 20.7594C16.1193 20.5133 15.7854 20.375 15.4374 20.375H14.9999C14.873 17.7894 13.6349 15.462 11.7755 14.2501C13.0251 13.4028 13.9686 12.1756 14.4661 10.7501C15.0865 11.186 15.801 11.4691 16.5515 11.5764C17.302 11.6838 18.0673 11.6122 18.7849 11.3677C19.5026 11.1232 20.1523 10.7126 20.6811 10.1693C21.21 9.62607 21.603 8.96555 21.8281 8.2416C22.0533 7.51765 22.1042 6.75075 21.9767 6.00339C21.8493 5.25602 21.547 4.54935 21.0947 3.94095C20.6423 3.33255 20.0526 2.83963 19.3735 2.50237C18.6945 2.16512 17.9455 1.99306 17.1873 2.00021ZM2.31249 6.37517H12.3968C12.3661 6.66603 12.3661 6.9593 12.3968 7.25016H2.31249C2.19646 7.25016 2.08518 7.20407 2.00313 7.12202C1.92108 7.03997 1.87499 6.9287 1.87499 6.81267C1.87499 6.69663 1.92108 6.58536 2.00313 6.50331C2.08518 6.42126 2.19646 6.37517 2.31249 6.37517ZM15.4374 22.125H2.31249C2.19646 22.125 2.08518 22.0789 2.00313 21.9969C1.92108 21.9148 1.87499 21.8035 1.87499 21.6875C1.87499 21.5715 1.92108 21.4602 2.00313 21.3782C2.08518 21.2961 2.19646 21.25 2.31249 21.25H15.4374C15.5534 21.25 15.6647 21.2961 15.7467 21.3782C15.8288 21.4602 15.8748 21.5715 15.8748 21.6875C15.8748 21.8035 15.8288 21.9148 15.7467 21.9969C15.6647 22.0789 15.5534 22.125 15.4374 22.125ZM10.673 13.852C10.5966 13.8868 10.5319 13.9428 10.4865 14.0134C10.4411 14.084 10.4169 14.1662 10.4169 14.2501C10.4169 14.334 10.4411 14.4162 10.4865 14.4868C10.5319 14.5574 10.5966 14.6134 10.673 14.6482C12.6286 15.5626 13.9761 17.8069 14.1249 20.375H3.62497C3.7606 17.8069 5.10808 15.5626 7.06369 14.6482C7.14007 14.6134 7.20483 14.5574 7.25024 14.4868C7.29565 14.4162 7.31979 14.334 7.31979 14.2501C7.31979 14.1662 7.29565 14.084 7.25024 14.0134C7.20483 13.9428 7.14007 13.8868 7.06369 13.852C5.12121 12.9595 3.77372 10.6933 3.62497 8.12515H12.5499C12.7661 8.88768 13.1674 9.58499 13.718 10.1551C13.4918 10.9476 13.1047 11.6848 12.5808 12.3209C12.0569 12.957 11.4074 13.4782 10.673 13.852ZM17.1873 10.7501C16.4086 10.7501 15.6473 10.5192 14.9998 10.0865C14.3523 9.65389 13.8476 9.03894 13.5496 8.31947C13.2516 7.59999 13.1736 6.8083 13.3255 6.04451C13.4775 5.28071 13.8525 4.57912 14.4031 4.02846C14.9538 3.4778 15.6554 3.10279 16.4192 2.95086C17.183 2.79894 17.9747 2.87691 18.6941 3.17493C19.4136 3.47294 20.0286 3.97762 20.4612 4.62513C20.8939 5.27264 21.1248 6.03391 21.1248 6.81267C21.1248 7.32974 21.0229 7.84175 20.8251 8.31947C20.6272 8.79718 20.3372 9.23124 19.9715 9.59687C19.6059 9.9625 19.1718 10.2525 18.6941 10.4504C18.2164 10.6483 17.7044 10.7501 17.1873 10.7501Z" fill="#C59446"/>
<path d="M18.7668 6.5806C18.86 6.41404 18.9157 6.22916 18.9301 6.03886C18.9445 5.84855 18.9172 5.6574 18.8502 5.47872C18.7831 5.30005 18.6779 5.13814 18.5419 5.00429C18.4058 4.87045 18.2422 4.76788 18.0625 4.70374V4.1875C18.0625 4.07146 18.0164 3.96019 17.9343 3.87814C17.8523 3.79609 17.741 3.75 17.625 3.75C17.5089 3.75 17.3977 3.79609 17.3156 3.87814C17.2336 3.96019 17.1875 4.07146 17.1875 4.1875V4.62499H16.75V4.1875C16.75 4.07146 16.7039 3.96019 16.6218 3.87814C16.5398 3.79609 16.4285 3.75 16.3125 3.75C16.1965 3.75 16.0852 3.79609 16.0031 3.87814C15.9211 3.96019 15.875 4.07146 15.875 4.1875V4.62499H15.4375C15.3215 4.62499 15.2102 4.67108 15.1281 4.75313C15.0461 4.83518 15 4.94646 15 5.06249C15 5.17852 15.0461 5.2898 15.1281 5.37184C15.2102 5.45389 15.3215 5.49998 15.4375 5.49998H15.875V8.12496H15.4375C15.3215 8.12496 15.2102 8.17105 15.1281 8.25309C15.0461 8.33514 15 8.44642 15 8.56245C15 8.67848 15.0461 8.78976 15.1281 8.87181C15.2102 8.95385 15.3215 8.99995 15.4375 8.99995H15.875V9.43744C15.875 9.55347 15.9211 9.66475 16.0031 9.7468C16.0852 9.82884 16.1965 9.87494 16.3125 9.87494C16.4285 9.87494 16.5398 9.82884 16.6218 9.7468C16.7039 9.66475 16.75 9.55347 16.75 9.43744V8.99995H17.1875V9.43744C17.1875 9.55347 17.2336 9.66475 17.3156 9.7468C17.3977 9.82884 17.5089 9.87494 17.625 9.87494C17.741 9.87494 17.8523 9.82884 17.9343 9.7468C18.0164 9.66475 18.0625 9.55347 18.0625 9.43744V8.99995C18.3464 8.99974 18.6226 8.90747 18.8496 8.73697C19.0767 8.56648 19.2423 8.32695 19.3217 8.05434C19.4011 7.78173 19.3899 7.49074 19.2898 7.22501C19.1898 6.95929 19.0063 6.73318 18.7668 6.5806ZM17.625 5.49998C17.741 5.49998 17.8523 5.54608 17.9343 5.62812C18.0164 5.71017 18.0625 5.82145 18.0625 5.93748C18.0625 6.05351 18.0164 6.16479 17.9343 6.24683C17.8523 6.32888 17.741 6.37497 17.625 6.37497H16.75V5.49998H17.625ZM18.0625 8.12496H16.75V7.24996H18.0625C18.1785 7.24996 18.2898 7.29606 18.3718 7.3781C18.4539 7.46015 18.5 7.57143 18.5 7.68746C18.5 7.80349 18.4539 7.91477 18.3718 7.99682C18.2898 8.07886 18.1785 8.12496 18.0625 8.12496Z" fill="#C59446"/>
<path d="M12.1982 10.982C12.0276 10.6582 12.2245 10.7501 5.94206 10.7501C5.86258 10.75 5.78457 10.7715 5.71641 10.8124C5.64824 10.8532 5.5925 10.9119 5.55517 10.9821C5.51784 11.0522 5.50033 11.1313 5.50451 11.2106C5.5087 11.29 5.53443 11.3667 5.57894 11.4326C5.89168 11.9371 6.30885 12.3688 6.80239 12.6985C7.29593 13.0283 7.85438 13.2486 8.44016 13.3444V14.25C8.44016 14.3661 8.48625 14.4774 8.5683 14.5594C8.65035 14.6414 8.76163 14.6875 8.87766 14.6875C8.99369 14.6875 9.10497 14.6414 9.18701 14.5594C9.26906 14.4774 9.31515 14.3661 9.31515 14.25V13.3444C9.90094 13.2486 10.4594 13.0283 10.9529 12.6985C11.4465 12.3688 11.8636 11.9371 12.1764 11.4326C12.2206 11.3665 12.246 11.2897 12.2499 11.2103C12.2537 11.1309 12.2359 11.052 12.1982 10.982ZM6.86955 11.6251H10.8858C10.6294 11.9015 10.3187 12.122 9.97317 12.2729C9.62763 12.4237 9.25467 12.5015 8.87766 12.5015C8.50064 12.5015 8.12768 12.4237 7.78214 12.2729C7.4366 12.122 7.12592 11.9015 6.86955 11.6251Z" fill="#C59446"/>
<path d="M4.88022 18.9185C4.85634 18.9865 4.8496 19.0593 4.8606 19.1305C4.8716 19.2016 4.9 19.269 4.94328 19.3265C4.98656 19.3841 5.04338 19.4301 5.1087 19.4604C5.17402 19.4908 5.24582 19.5045 5.31772 19.5004C13.0264 19.5004 12.6458 19.5792 12.8295 19.3167C12.8709 19.2601 12.898 19.1944 12.9087 19.1251C12.9193 19.0558 12.9132 18.985 12.8908 18.9185C11.3333 14.4561 6.42021 14.4517 4.88022 18.9185ZM11.8014 18.6254H5.94771C7.33457 15.7161 10.4145 15.7117 11.8014 18.6254Z" fill="#C59446"/>
</svg>
