<svg width="24" height="24" viewBox="0 0 24 24" fill="none" xmlns="http://www.w3.org/2000/svg">
<path d="M21.2605 15.752C21.1912 15.5479 21.0823 15.3595 20.9399 15.1976C20.7976 15.0358 20.6247 14.9036 20.4312 14.8088C20.2376 14.714 20.0272 14.6583 19.8121 14.6451C19.597 14.6318 19.3813 14.6612 19.1776 14.7316L17.5228 15.2475C17.5459 15.0334 17.5236 14.8168 17.4572 14.6119C17.3908 14.407 17.2819 14.2185 17.1375 14.0587C16.9932 13.8988 16.8167 13.7713 16.6197 13.6844C16.4226 13.5975 16.2094 13.5532 15.9941 13.5545H11.9047C10.4525 12.5837 9.2295 12.7901 6.82178 12.7901V12.4079C6.82178 12.3066 6.78151 12.2094 6.70984 12.1377C6.63817 12.066 6.54096 12.0258 6.4396 12.0258H3.38218C3.28082 12.0258 3.18361 12.066 3.11194 12.1377C3.04027 12.2094 3 12.3066 3 12.4079V18.5228C3 18.6241 3.04027 18.7214 3.11194 18.793C3.18361 18.8647 3.28082 18.905 3.38218 18.905H6.4396C6.54096 18.905 6.63817 18.8647 6.70984 18.793C6.78151 18.7214 6.82178 18.6241 6.82178 18.5228C6.82178 18.389 6.78738 18.3967 6.93261 18.4807C8.43594 19.346 10.1169 19.8567 11.8475 19.974C13.5781 20.0912 15.3126 19.8118 16.9189 19.1572L20.3585 17.7622C20.7323 17.5998 21.0319 17.3036 21.1987 16.9318C21.3656 16.5599 21.3876 16.1392 21.2605 15.752ZM6.05742 18.1406H3.76436V12.7901H6.05742V18.1406ZM20.0719 17.0552L16.6323 18.4463C15.1339 19.0584 13.5154 19.3198 11.9005 19.2105C10.2856 19.1012 8.71705 18.6242 7.31479 17.8158L6.82178 17.5368V13.5545C9.34033 13.5545 10.2805 13.3901 11.4805 14.1889C11.7481 14.3685 11.5837 14.3188 15.9941 14.3188C16.1391 14.3193 16.281 14.3611 16.4032 14.4392C16.5254 14.5173 16.6229 14.6286 16.6842 14.7601C16.7455 14.8915 16.7681 15.0377 16.7495 15.1815C16.7308 15.3254 16.6716 15.4609 16.5788 15.5724C16.1507 15.9545 16.5215 15.8475 11.7901 15.8475C11.6887 15.8475 11.5915 15.8878 11.5199 15.9595C11.4482 16.0311 11.4079 16.1284 11.4079 16.2297C11.4079 16.3311 11.4482 16.4283 11.5199 16.5C11.5915 16.5716 11.6887 16.6119 11.7901 16.6119C16.0972 16.6119 16.4527 16.7533 17.045 16.1915L19.4337 15.4654C19.6423 15.3942 19.8703 15.4056 20.0708 15.4971C20.2714 15.5886 20.4294 15.7533 20.5124 15.9575C20.5955 16.1617 20.5973 16.3899 20.5175 16.5954C20.4378 16.8009 20.2824 16.9682 20.0834 17.0629L20.0719 17.0552Z" fill="#B4E6A1"/>
<path d="M4.63818 16.7227C4.58504 16.7763 4.54895 16.8444 4.53446 16.9185C4.51997 16.9925 4.52772 17.0692 4.55674 17.1388C4.58575 17.2085 4.63474 17.268 4.69752 17.3098C4.7603 17.3517 4.83407 17.374 4.90952 17.374C4.98498 17.374 5.05874 17.3517 5.12152 17.3098C5.1843 17.268 5.23329 17.2085 5.26231 17.1388C5.29133 17.0692 5.29908 16.9925 5.28458 16.9185C5.27009 16.8444 5.234 16.7763 5.18087 16.7227C5.14534 16.6869 5.10307 16.6585 5.0565 16.6391C5.00993 16.6197 4.95997 16.6097 4.90952 16.6097C4.85907 16.6097 4.80912 16.6197 4.76255 16.6391C4.71597 16.6585 4.6737 16.6869 4.63818 16.7227Z" fill="#B4E6A1"/>
<path d="M15.2273 9.35053H13.6986C13.5972 9.35053 13.5 9.39079 13.4283 9.46246C13.3567 9.53414 13.3164 9.63134 13.3164 9.7327C13.3164 9.83406 13.3567 9.93127 13.4283 10.0029C13.5 10.0746 13.5972 10.1149 13.6986 10.1149H14.4629V10.4971C14.4629 10.5984 14.5032 10.6956 14.5749 10.7673C14.6465 10.839 14.7438 10.8792 14.8451 10.8792C14.9465 10.8792 15.0437 10.839 15.1154 10.7673C15.187 10.6956 15.2273 10.5984 15.2273 10.4971V10.1149C15.5314 10.1149 15.823 9.99409 16.038 9.77907C16.253 9.56405 16.3738 9.27243 16.3738 8.96835C16.3738 8.66427 16.253 8.37264 16.038 8.15763C15.823 7.94261 15.5314 7.82182 15.2273 7.82182H14.4629C14.3616 7.82182 14.2644 7.78155 14.1927 7.70988C14.121 7.63821 14.0808 7.541 14.0808 7.43964C14.0808 7.33828 14.121 7.24107 14.1927 7.1694C14.2644 7.09772 14.3616 7.05746 14.4629 7.05746H15.9917C16.093 7.05746 16.1902 7.01719 16.2619 6.94552C16.3336 6.87385 16.3738 6.77664 16.3738 6.67528C16.3738 6.57392 16.3336 6.47671 16.2619 6.40504C16.1902 6.33337 16.093 6.2931 15.9917 6.2931H15.2273V5.91093C15.2273 5.80957 15.187 5.71236 15.1154 5.64068C15.0437 5.56901 14.9465 5.52875 14.8451 5.52875C14.7438 5.52875 14.6465 5.56901 14.5749 5.64068C14.5032 5.71236 14.4629 5.80957 14.4629 5.91093V6.2931C14.1589 6.2931 13.8672 6.4139 13.6522 6.62892C13.4372 6.84393 13.3164 7.13556 13.3164 7.43964C13.3164 7.74372 13.4372 8.03534 13.6522 8.25036C13.8672 8.46538 14.1589 8.58617 14.4629 8.58617H15.2273C15.3287 8.58617 15.4259 8.62644 15.4975 8.69811C15.5692 8.76978 15.6095 8.86699 15.6095 8.96835C15.6095 9.06971 15.5692 9.16692 15.4975 9.23859C15.4259 9.31026 15.3287 9.35053 15.2273 9.35053Z" fill="#B4E6A1"/>
<path d="M14.8485 12.4079C15.68 12.4079 16.4927 12.1614 17.1841 11.6994C17.8754 11.2375 18.4143 10.5809 18.7324 9.81274C19.0506 9.04457 19.1339 8.1993 18.9717 7.38381C18.8095 6.56832 18.4091 5.81925 17.8211 5.23131C17.2332 4.64338 16.4841 4.24299 15.6686 4.08078C14.8532 3.91857 14.0079 4.00182 13.2397 4.32001C12.4715 4.6382 11.815 5.17703 11.353 5.86837C10.8911 6.5597 10.6445 7.37249 10.6445 8.20396C10.6445 9.31892 11.0874 10.3882 11.8758 11.1766C12.6642 11.965 13.7335 12.4079 14.8485 12.4079ZM14.8485 4.76436C15.5288 4.76436 16.1938 4.96609 16.7594 5.34404C17.3251 5.72198 17.7659 6.25918 18.0263 6.88768C18.2866 7.51619 18.3547 8.20777 18.222 8.87499C18.0893 9.54221 17.7617 10.1551 17.2807 10.6361C16.7996 11.1172 16.1867 11.4448 15.5195 11.5775C14.8523 11.7102 14.1607 11.6421 13.5322 11.3817C12.9037 11.1214 12.3665 10.6805 11.9886 10.1149C11.6106 9.54926 11.4089 8.88425 11.4089 8.20396C11.4089 7.29172 11.7713 6.41684 12.4163 5.77179C13.0614 5.12674 13.9362 4.76436 14.8485 4.76436Z" fill="#B4E6A1"/>
</svg>
