<svg width="24" height="24" viewBox="0 0 24 24" fill="none" xmlns="http://www.w3.org/2000/svg">
<path d="M7.65877 2C5.0859 2 3 4.19568 3 6.90396C3 9.6124 5.0859 11.8081 7.65877 11.8081C10.2318 11.8081 12.3177 9.6124 12.3177 6.90396C12.3147 4.19692 10.2306 2.00309 7.65877 2ZM4.73783 9.97909V9.93679C4.73783 9.92737 4.73739 9.91811 4.73637 9.90884C4.70116 9.5423 4.81499 9.17715 5.04967 8.90387C5.28435 8.63059 5.61804 8.47465 5.96802 8.47465H6.1873L6.65975 10.0302C6.68938 10.1279 6.76785 10.2003 6.86378 10.2184C6.95956 10.2365 7.0571 10.1973 7.11709 10.1165L7.59085 9.49197H7.6881L8.20851 10.1269C8.26982 10.2016 8.36443 10.2363 8.45669 10.2178C8.54895 10.1993 8.62478 10.1304 8.65573 10.037L9.17204 8.47465H9.34981C9.69978 8.47465 10.0333 8.63059 10.268 8.90387C10.5027 9.17731 10.6164 9.5423 10.5812 9.90884C10.5801 9.91811 10.5797 9.92737 10.5797 9.93679V9.97909C9.80568 10.7957 8.75474 11.2546 7.65877 11.2546C6.56279 11.2546 5.51185 10.7957 4.73769 9.97909H4.73783ZM7.53336 8.52128H7.73988L7.63662 8.86851L7.53336 8.52128ZM11.0677 9.3612C10.8841 8.5185 10.1715 7.92113 9.34996 7.92129H8.98502C8.87326 7.92129 8.77366 7.99586 8.73685 8.10718L8.30884 9.40227L8.1032 9.15152L8.34844 8.32735C8.37338 8.24336 8.359 8.1518 8.30943 8.08078C8.25985 8.00991 8.18123 7.96792 8.09763 7.96792H7.17561C7.09201 7.96792 7.01339 8.00991 6.96381 8.08078C6.91423 8.1518 6.89971 8.24336 6.92479 8.32735L7.1718 9.1577L7.01104 9.36969L6.62968 8.11382C6.59492 7.9991 6.49371 7.92129 6.3793 7.92129H5.96816C5.14648 7.92082 4.43362 8.51834 4.24984 9.3612C3.06997 7.54965 3.35804 5.09644 4.92133 3.64155C6.48461 2.18682 8.83292 2.18682 10.3964 3.64155C11.9596 5.09644 12.2477 7.54965 11.0677 9.3612Z" fill="#4FDECC"/>
<path d="M7.9814 3.19019H6.43821C6.14016 3.19034 5.89873 3.44448 5.89844 3.75821V6.01195C5.89844 7.00441 6.66263 7.80898 7.60547 7.80898C8.54831 7.80898 9.31265 7.00441 9.31265 6.01195V4.59134C9.31177 3.81781 8.71626 3.19096 7.9814 3.19019ZM8.77493 4.45068C7.83003 4.87327 7.13933 4.172 6.82529 3.74355H7.98155C8.37435 3.74416 8.70951 4.04292 8.77493 4.45068ZM6.87076 4.58717C6.75797 4.76226 6.60396 4.90384 6.42398 4.99818V4.0982C6.55687 4.27668 6.70663 4.44049 6.87076 4.58717ZM7.60547 7.25546C6.95334 7.25469 6.42486 6.6984 6.42413 6.01195V5.58983C6.86709 5.45149 7.14784 5.13605 7.30463 4.89766C7.57716 5.0533 7.88196 5.13559 8.19203 5.13729C8.39415 5.13636 8.59495 5.10193 8.78695 5.0357V6.01195C8.78622 6.6984 8.2576 7.25469 7.60547 7.25546Z" fill="#4FDECC"/>
<path d="M17.2878 12.1919C14.7148 12.1919 12.6289 14.3874 12.6289 17.0959C12.6289 19.8043 14.7148 22 17.2878 22C19.8608 22 21.9466 19.8044 21.9466 17.096C21.9437 14.3888 19.8597 12.195 17.2878 12.1919ZM14.5298 20.3334V19.6609C14.5298 19.6514 14.5294 19.6422 14.5285 19.6329C14.4954 19.2891 14.6022 18.9466 14.8223 18.6903C15.0425 18.434 15.3555 18.2877 15.6838 18.2878H15.8828L16.3275 19.7347C16.3573 19.8313 16.4349 19.9031 16.5299 19.9215C16.6248 19.94 16.7218 19.9022 16.7824 19.8231L17.2277 19.2531H17.3119L17.8018 19.8333C17.8637 19.9065 17.9577 19.9399 18.0489 19.921C18.1403 19.9022 18.2153 19.8338 18.2462 19.7415L18.7326 18.2878H18.8925C19.2207 18.2878 19.5336 18.4342 19.7536 18.6905C19.9736 18.9468 20.0804 19.2892 20.0473 19.6329C20.0464 19.6422 20.0459 19.6516 20.0459 19.6609V20.3334C18.4777 21.8178 16.0983 21.8178 14.53 20.3334H14.5298ZM17.1871 18.332H17.3465L17.2668 18.5998L17.1871 18.332ZM20.5715 19.7348V19.6743C20.6155 19.177 20.4584 18.6832 20.1389 18.3141C19.8193 17.9449 19.3668 17.7344 18.8923 17.7343H18.5463C18.4348 17.7344 18.3355 17.8084 18.2986 17.9191L17.8984 19.1146L17.7254 18.9097L17.9551 18.1379C17.9801 18.0539 17.9656 17.9623 17.916 17.8913C17.8666 17.8204 17.788 17.7784 17.7042 17.7784H16.8295C16.7457 17.7784 16.6671 17.8204 16.6175 17.8913C16.5681 17.9623 16.5536 18.0539 16.5785 18.1379L16.8101 18.916L16.6797 19.083L16.324 17.9257C16.2888 17.8115 16.1879 17.7341 16.0739 17.7341H15.6838C15.2093 17.7341 14.7566 17.9446 14.437 18.3137C14.1174 18.6829 13.9603 19.1767 14.0042 19.6741V19.7347C12.7039 17.9441 12.918 15.4046 14.4974 13.883C16.0769 12.3614 18.4988 12.3614 20.0784 13.883C21.6578 15.4046 21.8718 17.9441 20.5716 19.7347L20.5715 19.7348Z" fill="#4FDECC"/>
<path d="M11.4374 19.2613H6.29987C6.16023 19.2606 6.02705 19.1997 5.93142 19.0928C5.83769 18.9846 5.78797 18.8421 5.7931 18.6957C5.7931 18.6938 5.7931 18.6918 5.7931 18.6901L5.80131 14.5304L6.68138 15.4569C6.78405 15.565 6.95053 15.565 7.05321 15.4569C7.15573 15.3488 7.15573 15.1736 7.05321 15.0657L5.72548 13.6681C5.71991 13.6622 5.71404 13.6568 5.70803 13.6514L5.70715 13.6506C5.70172 13.6458 5.69585 13.6415 5.69028 13.6372C5.68896 13.6363 5.68779 13.6353 5.68647 13.6344C5.68089 13.6304 5.67517 13.6268 5.6693 13.6234C5.66769 13.6224 5.66608 13.6213 5.66446 13.6204C5.65889 13.6171 5.65317 13.6145 5.6473 13.6117C5.64525 13.6106 5.64334 13.6095 5.64114 13.6086C5.63557 13.6061 5.62985 13.6041 5.62427 13.6021C5.62178 13.6012 5.61929 13.6001 5.61679 13.5994C5.61093 13.5975 5.60506 13.596 5.59919 13.5946C5.5967 13.594 5.59421 13.5932 5.59157 13.5926C5.58467 13.5912 5.57763 13.5901 5.57059 13.5892C5.56912 13.589 5.56766 13.5887 5.56604 13.5885C5.5483 13.5867 5.5304 13.5867 5.51265 13.5885C5.51133 13.5885 5.51016 13.589 5.50884 13.5892C5.50165 13.5899 5.49446 13.5912 5.48728 13.5926C5.48449 13.5932 5.482 13.594 5.47936 13.5946C5.47364 13.596 5.46806 13.5973 5.46234 13.5992C5.45956 13.6001 5.45677 13.6014 5.45398 13.6023C5.4487 13.6043 5.44327 13.6063 5.43814 13.6085C5.4355 13.6095 5.43301 13.6109 5.43066 13.6122C5.42523 13.6146 5.4201 13.6171 5.41497 13.62C5.41262 13.6213 5.41057 13.6228 5.40837 13.6241C5.40308 13.6271 5.39795 13.6302 5.39296 13.6338C5.39076 13.6353 5.38871 13.637 5.38666 13.6387C5.38182 13.6424 5.37698 13.646 5.37243 13.6498C5.36964 13.6523 5.367 13.6549 5.36436 13.6576C5.3607 13.661 5.35688 13.6642 5.35336 13.6679L4.02622 15.0657C3.92355 15.1737 3.92355 15.3488 4.02622 15.4569C4.1289 15.565 4.29523 15.565 4.3979 15.4569L5.27548 14.5333L5.26741 18.6864C5.25963 18.9761 5.35996 19.2574 5.54668 19.4702C5.74 19.6866 6.00857 19.8111 6.29078 19.8146H11.4374C11.5826 19.8146 11.7002 19.6908 11.7002 19.5379C11.7002 19.3851 11.5826 19.2613 11.4374 19.2613Z" fill="#4FDECC"/>
<path d="M13.5986 4.73884H18.7363C18.8756 4.74023 19.0085 4.80122 19.1042 4.90791C19.1998 5.0146 19.25 5.15772 19.2432 5.3044V5.30996L19.2352 9.46973L18.3549 8.54319C18.2523 8.43511 18.0859 8.43511 17.9833 8.54319C17.8806 8.65127 17.8806 8.82651 17.9833 8.93459L19.3104 10.332C19.3214 10.3435 19.3334 10.354 19.3462 10.3632C19.3472 10.364 19.3481 10.3648 19.3491 10.3655C19.3541 10.3691 19.3592 10.3722 19.3642 10.3753C19.3666 10.3768 19.3688 10.3784 19.3711 10.3797C19.3757 10.3822 19.3802 10.3844 19.3849 10.3867C19.3881 10.3882 19.3912 10.3899 19.3943 10.3915C19.3988 10.3933 19.4034 10.395 19.4079 10.3967C19.4115 10.398 19.415 10.3995 19.4185 10.4006C19.4238 10.4023 19.4292 10.4035 19.4345 10.4049C19.4374 10.4057 19.4404 10.4066 19.4434 10.4074C19.4512 10.4089 19.459 10.4103 19.4669 10.4112L19.4688 10.4116C19.4955 10.4146 19.5223 10.4132 19.5486 10.4077C19.5521 10.4069 19.5555 10.4058 19.559 10.4049C19.5639 10.4037 19.5687 10.4026 19.5734 10.4009C19.5781 10.3994 19.5823 10.3977 19.5867 10.3958C19.5903 10.3946 19.5939 10.3933 19.5974 10.3919C19.6018 10.3899 19.6061 10.3878 19.6102 10.3856C19.6137 10.3838 19.6172 10.3822 19.6206 10.3804C19.624 10.3784 19.6277 10.3759 19.6312 10.3736C19.6347 10.3714 19.639 10.3689 19.6426 10.3663C19.6453 10.3645 19.6475 10.3623 19.65 10.3606C19.6614 10.3521 19.6721 10.3425 19.6821 10.3323L21.0097 8.9349C21.1123 8.82682 21.1123 8.65158 21.0097 8.5435C20.907 8.43542 20.7405 8.43542 20.6378 8.5435L19.7604 9.46726L19.7683 5.31397C19.7774 5.02077 19.6742 4.73591 19.4817 4.52377C19.2893 4.31162 19.0238 4.18981 18.7451 4.18579H13.5988C13.4536 4.18579 13.3359 4.30962 13.3359 4.46247C13.3359 4.61517 13.4536 4.73915 13.5988 4.73915L13.5986 4.73884Z" fill="#4FDECC"/>
<path d="M17.2386 13.2454C16.3371 13.2464 15.6065 14.0155 15.6055 14.9644V15.5416C15.6055 16.4909 16.3367 17.2606 17.2386 17.2606C18.1406 17.2606 18.8718 16.4909 18.8718 15.5416V14.9644C18.8707 14.0155 18.1401 13.2464 17.2386 13.2454ZM18.3463 15.5416C18.3463 16.1854 17.8505 16.7073 17.2389 16.7073C16.6272 16.7073 16.1313 16.1854 16.1313 15.5416V14.9644C16.1313 14.3206 16.6272 13.7987 17.2389 13.7987C17.8505 13.7987 18.3463 14.3206 18.3463 14.9644V15.5416Z" fill="#4FDECC"/>
</svg>
