<svg width="24" height="24" viewBox="0 0 24 24" fill="none" xmlns="http://www.w3.org/2000/svg">
<path d="M19.4279 19.7055C19.4279 19.3539 19.68 19.0706 20.0205 18.9816C21.024 18.7183 21.7664 17.8038 21.7664 16.7187V6.98485C21.7664 6.36406 21.5201 5.76923 21.0811 5.33016L19.9196 4.16794C19.4813 3.7296 18.8864 3.48337 18.2664 3.48337H5.98411C5.36406 3.48337 4.76923 3.7296 4.33016 4.16794L3.16794 5.33016C2.7296 5.76849 2.48337 6.36332 2.48337 6.98337V16.7194C2.48337 17.8038 3.22579 18.719 4.22929 18.9823C4.56972 19.0713 4.82189 19.3546 4.82189 19.7062C4.82189 20.1905 4.36427 20.545 3.89479 20.4279C2.23416 20.0125 1 18.5076 1 16.7194V6.98411C1 5.96949 1.40348 4.99714 2.12068 4.27993L3.2829 3.11846C3.99937 2.40199 4.97097 2 5.98411 2H18.2686C19.2817 2 20.2533 2.40273 20.9691 3.1192L22.1305 4.28142C22.8478 4.99862 23.2505 5.97171 23.2505 6.98633V16.7194C23.2505 18.5076 22.0171 20.0125 20.3557 20.4279C19.8862 20.545 19.4286 20.1905 19.4286 19.7062L19.4279 19.7055Z" fill="#AD94F4"/>
<path d="M1.74219 4.96594H22.5093V6.44931H1.74219V4.96594Z" fill="#AD94F4"/>
<path d="M11.6543 18.6835C11.1744 18.6835 10.7227 18.4966 10.383 18.1569L9.55679 17.3307C9.26753 17.0414 9.26753 16.5712 9.55679 16.282C9.84604 15.9927 10.3163 15.9927 10.6055 16.282L11.4318 17.1082C11.5934 17.2699 11.718 17.2691 11.8768 17.1082L14.8005 14.1845C15.0897 13.8952 15.56 13.8952 15.8492 14.1845C16.1385 14.4745 16.1385 14.944 15.8492 15.2332L12.9255 18.1562C12.5858 18.4959 12.1349 18.6835 11.6543 18.6835Z" fill="#AD94F4"/>
<path d="M12.2923 23C8.6121 23 5.61719 20.0058 5.61719 16.3249C5.61719 12.6439 8.6121 9.64972 12.2923 9.64972C15.9726 9.64972 18.9675 12.6439 18.9675 16.3249C18.9675 20.0058 15.9726 23 12.2923 23ZM12.2923 11.1331C9.42944 11.1331 7.10055 13.462 7.10055 16.3249C7.10055 19.1878 9.42944 21.5166 12.2923 21.5166C15.1552 21.5166 17.4841 19.187 17.4841 16.3249C17.4841 13.4627 15.1545 11.1331 12.2923 11.1331Z" fill="#AD94F4"/>
</svg>
