<svg width="24" height="24" viewBox="0 0 24 24" fill="none" xmlns="http://www.w3.org/2000/svg">
<path d="M19.7344 2H4.64063C4.20566 2.00051 3.78866 2.17353 3.48109 2.48109C3.17353 2.78866 3.00051 3.20566 3 3.64063V5.60938C3.00051 6.04434 3.17353 6.46134 3.48109 6.76891C3.78866 7.07647 4.20566 7.24949 4.64063 7.25H6.60938C6.6964 7.25 6.77986 7.21543 6.84139 7.15389C6.90293 7.09236 6.9375 7.0089 6.9375 6.92188C6.9375 6.83485 6.90293 6.75139 6.84139 6.68986C6.77986 6.62832 6.6964 6.59375 6.60938 6.59375H4.64063C4.37964 6.59346 4.12943 6.48966 3.94488 6.30512C3.76034 6.12057 3.65654 5.87036 3.65625 5.60938V3.64063C3.65654 3.37964 3.76034 3.12943 3.94488 2.94488C4.12943 2.76034 4.37964 2.65654 4.64063 2.65625H19.7344C19.9954 2.65654 20.2456 2.76034 20.4301 2.94488C20.6147 3.12943 20.7185 3.37964 20.7188 3.64063V5.60938C20.7185 5.87036 20.6147 6.12057 20.4301 6.30512C20.2456 6.48966 19.9954 6.59346 19.7344 6.59375H17.7656C17.6786 6.59375 17.5951 6.62832 17.5336 6.68986C17.4721 6.75139 17.4375 6.83485 17.4375 6.92188C17.4375 7.0089 17.4721 7.09236 17.5336 7.15389C17.5951 7.21543 17.6786 7.25 17.7656 7.25H19.7344C20.1693 7.24949 20.5863 7.07647 20.8939 6.76891C21.2015 6.46134 21.3745 6.04434 21.375 5.60938V3.64063C21.3745 3.20566 21.2015 2.78866 20.8939 2.48109C20.5863 2.17353 20.1693 2.00051 19.7344 2Z" fill="#7F9BFE"/>
<path d="M17.7656 5.28125C17.6786 5.28125 17.5951 5.31582 17.5336 5.37736C17.4721 5.43889 17.4375 5.52235 17.4375 5.60938C17.4375 5.6964 17.4721 5.77986 17.5336 5.84139C17.5951 5.90293 17.6786 5.9375 17.7656 5.9375H19.7344C19.8214 5.9375 19.9049 5.90293 19.9664 5.84139C20.0279 5.77986 20.0625 5.6964 20.0625 5.60938V3.64063C20.0625 3.5536 20.0279 3.47014 19.9664 3.40861C19.9049 3.34707 19.8214 3.3125 19.7344 3.3125H4.64063C4.5536 3.3125 4.47014 3.34707 4.40861 3.40861C4.34707 3.47014 4.3125 3.5536 4.3125 3.64063V5.60938C4.3125 5.6964 4.34707 5.77986 4.40861 5.84139C4.47014 5.90293 4.5536 5.9375 4.64063 5.9375H6.60938C6.6964 5.9375 6.77986 5.90293 6.84139 5.84139C6.90293 5.77986 6.9375 5.6964 6.9375 5.60938C6.9375 5.52235 6.90293 5.43889 6.84139 5.37736C6.77986 5.31582 6.6964 5.28125 6.60938 5.28125H4.96875V3.96875H19.4063V5.28125H17.7656Z" fill="#7F9BFE"/>
<path d="M16.7813 4.29688C16.6942 4.29688 16.6108 4.33145 16.5492 4.39298C16.4877 4.45452 16.4531 4.53798 16.4531 4.625V15.125H7.92188V4.625C7.92188 4.53798 7.88731 4.45452 7.82577 4.39298C7.76423 4.33145 7.68077 4.29688 7.59375 4.29688C7.50673 4.29688 7.42327 4.33145 7.36173 4.39298C7.30019 4.45452 7.26562 4.53798 7.26562 4.625V15.4531C7.26562 15.5402 7.30019 15.6236 7.36173 15.6851C7.42327 15.7467 7.50673 15.7813 7.59375 15.7813H16.7813C16.8683 15.7813 16.9517 15.7467 17.0133 15.6851C17.0748 15.6236 17.1094 15.5402 17.1094 15.4531V4.625C17.1094 4.53798 17.0748 4.45452 17.0133 4.39298C16.9517 4.33145 16.8683 4.29688 16.7813 4.29688Z" fill="#7F9BFE"/>
<path d="M8.90625 4.29688C8.81923 4.29688 8.73577 4.33145 8.67423 4.39298C8.61269 4.45452 8.57812 4.53798 8.57812 4.625V12.5C8.57812 12.587 8.61269 12.6705 8.67423 12.732C8.73577 12.7936 8.81923 12.8281 8.90625 12.8281C9.25423 12.8285 9.58784 12.9669 9.8339 13.213C10.08 13.459 10.2184 13.7926 10.2188 14.1406C10.2188 14.2277 10.2533 14.3111 10.3149 14.3726C10.3764 14.4342 10.4599 14.4688 10.5469 14.4688H13.8281C13.9151 14.4688 13.9986 14.4342 14.0601 14.3726C14.1217 14.3111 14.1563 14.2277 14.1563 14.1406C14.1566 13.7926 14.295 13.459 14.5411 13.213C14.7872 12.9669 15.1208 12.8285 15.4688 12.8281C15.5558 12.8281 15.6392 12.7936 15.7008 12.732C15.7623 12.6705 15.7969 12.587 15.7969 12.5V4.625C15.7969 4.53798 15.7623 4.45452 15.7008 4.39298C15.6392 4.33145 15.5558 4.29688 15.4688 4.29688C15.3817 4.29688 15.2983 4.33145 15.2367 4.39298C15.1752 4.45452 15.1406 4.53798 15.1406 4.625V12.1993C14.7378 12.2681 14.3663 12.4602 14.0773 12.7492C13.7883 13.0381 13.5962 13.4097 13.5274 13.8125H10.8476C10.7788 13.4097 10.5867 13.0381 10.2977 12.7492C10.0087 12.4602 9.6372 12.2681 9.23438 12.1993V4.625C9.23438 4.53798 9.19981 4.45452 9.13827 4.39298C9.07673 4.33145 8.99327 4.29688 8.90625 4.29688Z" fill="#7F9BFE"/>
<path d="M15.1406 19.3906H13.4999V16.7656C13.4999 16.6786 13.4654 16.5951 13.4038 16.5336C13.3423 16.4721 13.2588 16.4375 13.1718 16.4375C13.0848 16.4375 13.0013 16.4721 12.9398 16.5336C12.8783 16.5951 12.8437 16.6786 12.8437 16.7656V19.7188C12.8437 19.8058 12.8783 19.8892 12.9398 19.9508C13.0013 20.0123 13.0848 20.0469 13.1718 20.0469H14.3484L12.1874 22.2079L10.0264 20.0469H11.2031C11.2901 20.0469 11.3735 20.0123 11.4351 19.9508C11.4966 19.8892 11.5312 19.8058 11.5312 19.7188V16.7656C11.5312 16.6786 11.4966 16.5951 11.4351 16.5336C11.3735 16.4721 11.2901 16.4375 11.2031 16.4375C11.116 16.4375 11.0326 16.4721 10.971 16.5336C10.9095 16.5951 10.8749 16.6786 10.8749 16.7656V19.3906H9.23431C9.16942 19.3906 9.10599 19.4099 9.05205 19.4459C8.9981 19.482 8.95605 19.5332 8.93122 19.5932C8.90639 19.6531 8.8999 19.7191 8.91255 19.7827C8.92521 19.8464 8.95645 19.9048 9.00232 19.9507L11.9554 22.9039C11.9859 22.9343 12.0221 22.9585 12.0619 22.975C12.1017 22.9915 12.1443 23 12.1874 23C12.2305 23 12.2732 22.9915 12.313 22.975C12.3528 22.9585 12.389 22.9343 12.4194 22.9039L15.3725 19.9507C15.4184 19.9048 15.4497 19.8464 15.4623 19.7827C15.475 19.7191 15.4685 19.6531 15.4436 19.5932C15.4188 19.5332 15.3768 19.482 15.3228 19.4459C15.2689 19.4099 15.2054 19.3906 15.1406 19.3906Z" fill="#7F9BFE"/>
<path d="M11.4472 5.9375H11.5313C11.6183 5.9375 11.7017 5.90293 11.7633 5.84139C11.8248 5.77986 11.8594 5.6964 11.8594 5.60938C11.8594 5.52235 11.8248 5.43889 11.7633 5.37736C11.7017 5.31582 11.6183 5.28125 11.5313 5.28125H11.4472C11.2085 5.2815 10.9797 5.37641 10.8109 5.54516C10.6421 5.7139 10.5472 5.9427 10.5469 6.18136V6.26497C10.4599 6.26497 10.3764 6.29954 10.3149 6.36107C10.2533 6.42261 10.2188 6.50607 10.2188 6.59309C10.2188 6.68012 10.2533 6.76358 10.3149 6.82511C10.3764 6.88665 10.4599 6.92122 10.5469 6.92122V7.00597C10.5469 7.21973 10.6229 7.42651 10.7614 7.58932C10.8999 7.75213 11.0919 7.86034 11.3029 7.89459C11.5139 7.92883 11.7302 7.88688 11.9131 7.77623C12.0959 7.66559 12.2335 7.49347 12.3011 7.29069L12.4242 6.92122H13.1719V7.00597C13.1718 7.07065 13.1461 7.13266 13.1004 7.17841C13.0547 7.22416 12.9927 7.2499 12.928 7.25H12.8438C12.7567 7.25 12.6733 7.28457 12.6117 7.34611C12.5502 7.40764 12.5156 7.4911 12.5156 7.57813C12.5156 7.66515 12.5502 7.74861 12.6117 7.81014C12.6733 7.87168 12.7567 7.90625 12.8438 7.90625H12.928C13.1667 7.90595 13.3955 7.811 13.5642 7.64223C13.733 7.47345 13.8279 7.24464 13.8281 7.00597V6.92122C13.9151 6.92122 13.9986 6.88665 14.0601 6.82511C14.1217 6.76358 14.1563 6.68012 14.1563 6.59309C14.1563 6.50607 14.1217 6.42261 14.0601 6.36107C13.9986 6.29954 13.9151 6.26497 13.8281 6.26497V6.18136C13.8281 5.96763 13.752 5.76089 13.6135 5.59812C13.475 5.43534 13.2831 5.32716 13.0721 5.29292C12.8611 5.25868 12.6449 5.30061 12.462 5.41122C12.2791 5.52183 12.1415 5.6939 12.0739 5.89665L11.9513 6.26497H11.2031V6.18136C11.2032 6.11669 11.229 6.05469 11.2747 6.00897C11.3205 5.96326 11.3825 5.93755 11.4472 5.9375ZM12.6965 6.10429C12.7148 6.04933 12.7521 6.00268 12.8016 5.97269C12.8512 5.9427 12.9098 5.93132 12.967 5.94059C13.0242 5.94986 13.0762 5.97918 13.1137 6.02329C13.1513 6.06741 13.1719 6.12344 13.1719 6.18136V6.26497H12.643L12.6965 6.10429ZM11.7324 6.92132L11.6785 7.08315C11.6602 7.13815 11.6229 7.18485 11.5734 7.21488C11.5238 7.24491 11.4651 7.25629 11.4079 7.24701C11.3507 7.23772 11.2987 7.20836 11.2612 7.16419C11.2236 7.12002 11.2031 7.06393 11.2031 7.00597V6.92122L11.7324 6.92132Z" fill="#7F9BFE"/>
<path d="M12.1875 9.21875C11.9928 9.21875 11.8025 9.27648 11.6406 9.38465C11.4787 9.49281 11.3526 9.64655 11.2781 9.82642C11.2036 10.0063 11.1841 10.2042 11.222 10.3952C11.26 10.5861 11.3538 10.7615 11.4914 10.8992C11.6291 11.0369 11.8045 11.1306 11.9955 11.1686C12.1864 11.2066 12.3843 11.1871 12.5642 11.1126C12.7441 11.0381 12.8978 10.9119 13.006 10.75C13.1141 10.5881 13.1719 10.3978 13.1719 10.2031C13.1716 9.94214 13.0678 9.69193 12.8832 9.50738C12.6987 9.32284 12.4485 9.21904 12.1875 9.21875ZM12.1875 10.5313C12.1226 10.5313 12.0592 10.512 12.0052 10.476C11.9512 10.4399 11.9092 10.3886 11.8844 10.3287C11.8595 10.2687 11.853 10.2028 11.8657 10.1391C11.8783 10.0755 11.9096 10.017 11.9555 9.97111C12.0014 9.92522 12.0598 9.89397 12.1235 9.8813C12.1871 9.86864 12.2531 9.87514 12.3131 9.89998C12.373 9.92481 12.4243 9.96687 12.4603 10.0208C12.4964 10.0748 12.5156 10.1382 12.5156 10.2031C12.5155 10.2901 12.4809 10.3735 12.4194 10.435C12.3579 10.4965 12.2745 10.5311 12.1875 10.5313Z" fill="#7F9BFE"/>
</svg>
