<svg width="24" height="24" viewBox="0 0 24 24" fill="none" xmlns="http://www.w3.org/2000/svg">
<path fill-rule="evenodd" clip-rule="evenodd" d="M13.9023 9.15402C13.9023 9.05568 13.9816 8.95104 14.1117 8.883V9.42471C13.9816 9.35676 13.9023 9.25239 13.9023 9.15402ZM14.9624 10.4828C14.9624 10.5807 14.8831 10.6854 14.7512 10.7534V10.2117C14.8831 10.2797 14.9624 10.3844 14.9624 10.4828ZM13.9025 10.4828C13.9025 10.3977 13.8687 10.3162 13.8086 10.2561C13.7485 10.1959 13.6669 10.1622 13.5819 10.1622C13.4969 10.1622 13.4153 10.1959 13.3552 10.2561C13.2951 10.3162 13.2613 10.3977 13.2613 10.4828C13.2613 10.932 13.6215 11.3118 14.1118 11.4289V11.4897C14.1107 11.5324 14.1181 11.5749 14.1336 11.6147C14.1491 11.6545 14.1725 11.6908 14.2023 11.7214C14.2321 11.7521 14.2677 11.7764 14.3071 11.793C14.3465 11.8096 14.3888 11.8182 14.4315 11.8182C14.4742 11.8182 14.5165 11.8096 14.5559 11.793C14.5953 11.7764 14.6309 11.7521 14.6607 11.7214C14.6905 11.6908 14.7138 11.6545 14.7294 11.6147C14.7449 11.5749 14.7523 11.5324 14.7512 11.4897V11.4289C15.2415 11.3118 15.6017 10.932 15.6017 10.4828C15.6017 10.0335 15.2415 9.65336 14.7512 9.53624V8.88316C14.8831 8.95112 14.9624 9.05584 14.9624 9.15418C14.9611 9.19695 14.9684 9.23954 14.9839 9.27943C14.9994 9.31931 15.0228 9.35569 15.0526 9.38639C15.0824 9.41709 15.118 9.4415 15.1575 9.45816C15.1969 9.47483 15.2392 9.48342 15.282 9.48342C15.3248 9.48342 15.3672 9.47483 15.4066 9.45816C15.446 9.4415 15.4816 9.41709 15.5115 9.38639C15.5413 9.35569 15.5646 9.31931 15.5801 9.27943C15.5956 9.23954 15.6029 9.19695 15.6017 9.15418C15.6017 8.70492 15.2415 8.32518 14.7512 8.20766V8.14734C14.7523 8.10463 14.7449 8.06211 14.7294 8.0223C14.7138 7.9825 14.6905 7.94621 14.6607 7.91558C14.6309 7.88496 14.5953 7.86061 14.5559 7.84399C14.5165 7.82737 14.4742 7.8188 14.4315 7.8188C14.3888 7.8188 14.3465 7.82737 14.3071 7.84399C14.2677 7.86061 14.2321 7.88496 14.2023 7.91558C14.1725 7.94621 14.1491 7.9825 14.1336 8.0223C14.1181 8.06211 14.1107 8.10463 14.1118 8.14734V8.20762C13.6215 8.32514 13.2613 8.70488 13.2613 9.15414C13.2613 9.60339 13.6215 9.98317 14.1118 10.1007V10.7535C13.9817 10.6856 13.9025 10.5808 13.9025 10.4829V10.4828ZM14.4324 7.71939C14.0173 7.71935 13.6115 7.84241 13.2662 8.07302C12.921 8.30362 12.652 8.63142 12.4931 9.01495C12.3341 9.39849 12.2925 9.82053 12.3735 10.2277C12.4544 10.6349 12.6543 11.0089 12.9479 11.3025C13.2414 11.5961 13.6154 11.796 14.0226 11.8771C14.4297 11.9581 14.8518 11.9165 15.2353 11.7577C15.6189 11.5989 15.9467 11.3298 16.1774 10.9847C16.4081 10.6395 16.5312 10.2337 16.5312 9.81853C16.5307 9.26199 16.3095 8.72838 15.9159 8.33484C15.5224 7.9413 14.9888 7.71998 14.4323 7.71947L14.4324 7.71939ZM14.4324 12.5569C14.9741 12.557 15.5036 12.3964 15.954 12.0956C16.4044 11.7947 16.7555 11.367 16.9628 10.8666C17.1702 10.3662 17.2244 9.81557 17.1188 9.28432C17.0132 8.75307 16.7524 8.26507 16.3694 7.88204C15.9864 7.49901 15.4984 7.23816 14.9672 7.13247C14.436 7.02678 13.8853 7.081 13.3849 7.28827C12.8845 7.49555 12.4567 7.84656 12.1558 8.29693C11.8549 8.7473 11.6943 9.27679 11.6943 9.81845C11.695 10.5445 11.9836 11.2406 12.497 11.754C13.0103 12.2674 13.7064 12.5562 14.4324 12.5569ZM12.8975 6.26203C10.4459 9.50706 10.2517 11.0656 10.5271 11.8027C10.5271 11.8055 10.529 11.8079 10.529 11.8106C10.7987 12.5929 12.4393 13.1606 14.4327 13.1606C16.4261 13.1606 18.0667 12.593 18.3364 11.8106C18.3361 11.8079 18.3367 11.805 18.3382 11.8027C18.6117 11.0656 18.4174 9.50706 15.9658 6.26203H12.8975ZM12.6184 5.05605H16.2448C16.3199 5.05605 16.392 5.08588 16.4451 5.139C16.4982 5.19211 16.528 5.26414 16.528 5.33925C16.528 5.41436 16.4982 5.4864 16.4451 5.53951C16.392 5.59262 16.3199 5.62246 16.2448 5.62246H12.6181C12.543 5.62246 12.4709 5.59262 12.4178 5.53951C12.3647 5.4864 12.3349 5.41436 12.3349 5.33925C12.3349 5.26414 12.3647 5.19211 12.4178 5.139C12.4709 5.08588 12.543 5.05605 12.6181 5.05605H12.6184ZM14.2798 3.42795C14.3267 3.4533 14.3792 3.46657 14.4325 3.46657C14.4859 3.46657 14.5384 3.4533 14.5853 3.42795C15.6489 2.85107 16.2807 2.66571 16.6559 2.64101C16.4897 3.3829 16.1427 3.96683 15.6071 4.41648H13.2574C12.7199 3.96683 12.3748 3.3829 12.2089 2.64101C12.5823 2.66571 13.2159 2.85107 14.2795 3.42795H14.2798ZM9.92539 12.0221C10.3799 13.3344 12.6372 13.8001 14.4326 13.8001C16.2279 13.8001 18.4833 13.3344 18.9397 12.0221C19.4055 10.7605 18.6662 8.83703 16.6824 6.15206C16.8459 6.06431 16.9792 5.92924 17.0648 5.76453C17.1503 5.59982 17.1842 5.41311 17.162 5.22883C17.1398 5.04455 17.0624 4.87127 16.9402 4.73164C16.8179 4.592 16.6563 4.49251 16.4765 4.44618C16.9385 3.89332 17.2327 3.20738 17.3497 2.39797C17.3614 2.31999 17.3438 2.24042 17.3002 2.17469C17.2567 2.10896 17.1902 2.06175 17.1138 2.04222C16.5386 1.894 15.6598 2.13671 14.4322 2.78411C13.2045 2.13655 12.3256 1.8936 11.7505 2.04222C11.6741 2.06199 11.6077 2.10918 11.5639 2.17479C11.52 2.2404 11.5019 2.31984 11.5129 2.39797C11.6317 3.20738 11.924 3.89332 12.386 4.44618C12.2065 4.4929 12.0452 4.59265 11.9233 4.73241C11.8013 4.87217 11.7243 5.04546 11.7023 5.22965C11.6802 5.41385 11.7143 5.6004 11.7999 5.76497C11.8855 5.92953 12.0187 6.06447 12.1822 6.15218C10.1983 8.83715 9.45903 10.7606 9.92484 12.0222L9.92539 12.0221ZM19.9656 14.4212L16.2052 18.4161C16.1376 18.4912 16.0546 18.5509 15.9619 18.5911C15.8691 18.6312 15.7688 18.6509 15.6678 18.6487H11.3587C11.2485 18.6479 11.1393 18.669 11.0373 18.7107C10.9353 18.7525 10.8427 18.814 10.7647 18.8918L10.0367 19.6057L7.17167 16.3531L9.17251 14.7642C9.2093 14.7332 9.25631 14.7169 9.30442 14.7186H13.331C13.4891 14.7186 13.6408 14.7815 13.7527 14.8933C13.8645 15.0052 13.9274 15.1569 13.9274 15.315C13.9274 15.4732 13.8645 15.6249 13.7527 15.7367C13.6408 15.8486 13.4891 15.9114 13.331 15.9114H10.5813C10.4965 15.9114 10.4152 15.9451 10.3552 16.0051C10.2953 16.0651 10.2616 16.1464 10.2616 16.2312C10.2616 16.316 10.2953 16.3974 10.3552 16.4573C10.4152 16.5173 10.4965 16.551 10.5813 16.551H14.9433C15.0177 16.5507 15.0896 16.5247 15.147 16.4775L18.8961 13.3804C19.194 13.1334 19.6598 13.0474 19.9728 13.3596C20.2595 13.6466 20.2557 14.1127 19.9653 14.4213L19.9656 14.4212ZM9.80444 20.6263C9.82517 20.6082 9.84211 20.5861 9.85428 20.5615C9.86646 20.5368 9.87363 20.5099 9.87539 20.4825C9.87714 20.455 9.87344 20.4275 9.8645 20.4015C9.85556 20.3754 9.84156 20.3514 9.8233 20.3309L6.3081 16.34C6.27122 16.2984 6.2194 16.2731 6.16393 16.2695C6.10846 16.266 6.05385 16.2846 6.01202 16.3212L4.71078 17.4688C4.69005 17.4869 4.6731 17.5089 4.66092 17.5336C4.64874 17.5583 4.64157 17.5851 4.63982 17.6126C4.63807 17.64 4.64178 17.6676 4.65072 17.6936C4.65967 17.7196 4.67369 17.7436 4.69196 17.7642L8.20696 21.7547C8.24379 21.7964 8.29563 21.8218 8.35112 21.8253C8.40662 21.8288 8.46124 21.8102 8.50304 21.7735L9.80428 20.6263L9.80444 20.6263ZM18.4887 12.8871C19.0959 12.3846 19.9106 12.3935 20.4236 12.9075C20.9572 13.4403 20.9592 14.2977 20.4311 14.8593L16.6726 18.8547C16.5446 18.993 16.389 19.1031 16.2159 19.1778C16.0428 19.2525 15.856 19.2901 15.6675 19.2883H11.3584C11.3311 19.2874 11.3038 19.2923 11.2785 19.3026C11.2531 19.3129 11.2302 19.3285 11.2113 19.3483L10.4362 20.111C10.5132 20.2773 10.5344 20.464 10.4966 20.6434C10.4589 20.8227 10.3643 20.9851 10.2269 21.1063L8.92567 22.2535C8.75638 22.402 8.53515 22.4774 8.3104 22.4632C8.08565 22.449 7.8757 22.3463 7.72649 22.1776L4.21132 18.1867C4.13771 18.103 4.08131 18.0056 4.04535 17.9C4.00939 17.7945 3.99458 17.6829 4.00176 17.5717C4.00894 17.4604 4.03797 17.3517 4.08719 17.2516C4.13641 17.1516 4.20486 17.0623 4.28863 16.9887L5.58982 15.8415C5.75127 15.6996 5.96047 15.6241 6.17532 15.6303C6.39016 15.6364 6.5947 15.7237 6.74776 15.8746L8.7769 14.2629C8.92618 14.1421 9.1129 14.0771 9.30494 14.079H13.331C13.5458 14.0789 13.757 14.1348 13.9437 14.2413C14.1303 14.3478 14.2859 14.5012 14.395 14.6863C14.5042 14.8714 14.5631 15.0818 14.566 15.2967C14.5689 15.5115 14.5157 15.7234 14.4115 15.9114H14.8283L18.4887 12.8871Z" fill="#143565"/>
</svg>
