<svg width="24" height="24" viewBox="0 0 24 24" fill="none" xmlns="http://www.w3.org/2000/svg">
<path d="M3.62604 14.5836C3.77803 14.614 3.95737 14.4952 3.98813 14.3427C3.99284 14.3193 4.48009 11.9749 6.26185 9.45451C7.30438 7.9798 8.58081 6.73295 10.0556 5.74857C11.8245 4.56795 13.8878 3.76266 16.1921 3.3523L15.9406 3.73514C15.7293 4.05675 16.2256 4.42154 16.4547 4.0729L17.0871 3.11026C17.1754 2.94367 17.1459 2.80161 16.9985 2.68403L16.0342 2.05271C15.7015 1.8347 15.3645 2.34955 15.6973 2.56736L15.9956 2.76269C13.6365 3.19396 11.5199 4.02853 9.69942 5.24672C8.16028 6.27658 6.8294 7.58036 5.74372 9.12179C3.89532 11.7462 3.40491 14.122 3.38494 14.2219C3.35164 14.3883 3.45958 14.5502 3.62604 14.5836Z" fill="#CFA546"/>
<path d="M20.6765 17.7969V15.8203C20.6765 15.6504 20.5387 15.5127 20.3689 15.5127H18.348V6.11129C18.348 5.94138 18.2103 5.80371 18.0404 5.80371H14.1096C13.9398 5.80371 13.8021 5.94138 13.8021 6.11129V9.337H10.1756C10.0058 9.337 9.86805 9.47467 9.86805 9.64458V12.8769H6.24163C6.07176 12.8769 5.93405 13.0146 5.93405 13.1845V15.9687H2.30758C2.13771 15.9687 2 16.1063 2 16.2762V19.3527C2 19.5226 2.13771 19.6602 2.30758 19.6602H3.39818C3.79586 19.6602 3.79586 19.0451 3.39818 19.0451H2.61516V16.5838H5.93081V19.0451H5.03517C4.63749 19.0451 4.63749 19.6602 5.03517 19.6602H11.3122V22.6925C11.3122 22.8624 11.4499 23 11.6197 23H20.3689C20.3707 23 20.3725 22.9998 20.3744 22.9998C20.378 22.9998 20.3816 23 20.3853 23C20.8453 23 21.2983 22.8782 21.6953 22.6477C22.0393 22.4481 21.7306 21.9162 21.3865 22.1157C21.0832 22.2918 20.737 22.3848 20.3853 22.3848C19.2842 22.3848 18.3885 21.49 18.3885 20.3901C18.3885 19.2902 19.2842 18.3954 20.3853 18.3954C21.4863 18.3954 22.3821 19.2902 22.3821 20.3901C22.3821 20.6268 22.3411 20.8584 22.26 21.0784C22.1227 21.4516 22.6999 21.6641 22.8373 21.291C22.9434 21.0026 22.9972 20.6995 22.9972 20.3901C22.9973 19.0495 21.9801 17.9421 20.6765 17.7969ZM18.8768 18.2616H16.3019V17.5023H20.0613V17.8011C19.6239 17.8555 19.2199 18.0181 18.8768 18.2616ZM15.6867 18.8767V19.636H11.9273V18.8767H15.6867ZM11.9273 20.2511H15.6867V21.0104H11.9273V20.2511ZM16.3019 20.2511H17.7771C17.7638 20.5029 17.7886 20.7662 17.8485 21.0104H16.3019V20.2511ZM17.8849 19.636H16.3019V18.8767H18.2594C18.0959 19.1053 17.9682 19.361 17.8849 19.636ZM20.0613 16.8871H16.3019V16.1279H18.0008C18.0138 16.1295 18.027 16.1307 18.0405 16.1307C18.054 16.1307 18.0671 16.1295 18.0802 16.1279H20.0613V16.8871H20.0613ZM17.7329 6.41887V15.5127H15.9943C15.8244 15.5127 15.6867 15.6504 15.6867 15.8203V17.1947V18.2616H14.4172V6.41887H17.7329ZM9.86485 19.0451H6.54921V13.4921H9.86485V19.0451ZM10.4832 19.0451V9.95216H13.7989V18.2615H11.6197C11.4499 18.2615 11.3122 18.3992 11.3122 18.5691V19.045L10.4832 19.0451ZM15.6867 22.3849H11.9273V21.6256H15.6867V22.3849ZM16.3019 22.3849V21.6256H18.0851C18.2421 21.9162 18.4528 22.1735 18.7035 22.3849H16.3019Z" fill="#CFA546"/>
<path d="M20.372 22.0131C20.5419 22.0131 20.6796 21.8754 20.6796 21.7055V21.601C20.9423 21.4957 21.141 21.2607 21.1903 20.9671C21.2537 20.5893 21.0491 20.2482 20.6812 20.1184C20.5269 20.0639 20.2894 20.0269 20.2397 19.9178C20.2151 19.8636 20.252 19.8152 20.3052 19.7865C20.4529 19.7419 20.5468 19.8132 20.557 19.8215C20.5526 19.818 20.5505 19.8158 20.5505 19.8158C20.5505 19.8158 20.8222 19.9759 20.9763 19.8218C21.2634 19.5347 20.9672 19.3632 20.9672 19.3632C20.9085 19.3092 20.8084 19.2449 20.6796 19.2026V19.133C20.6796 18.7353 20.0644 18.7353 20.0644 19.133V19.2204C19.8433 19.3113 19.6811 19.5116 19.6347 19.758C19.5874 20.0093 19.6719 20.2545 19.8552 20.3981C20.0209 20.5279 20.2517 20.6192 20.4765 20.6984C20.5312 20.7178 20.6019 20.7561 20.5836 20.8652C20.5724 20.932 20.5148 21.0452 20.37 21.0461C20.1999 21.0472 20.1637 21.0417 20.0422 20.9623C19.9 20.8695 19.7094 20.9094 19.6165 21.0517C19.5236 21.1939 19.5636 21.3845 19.7058 21.4774C19.8405 21.5654 19.9494 21.6127 20.0644 21.6373V21.7055C20.0644 21.8754 20.2021 22.0131 20.372 22.0131Z" fill="#CFA546"/>
</svg>
