<svg width="24" height="24" viewBox="0 0 24 24" fill="none" xmlns="http://www.w3.org/2000/svg">
<path d="M12.7105 12.0895C12.3048 11.9462 11.8561 11.7729 11.6036 11.5748C11.4127 11.4251 11.4933 10.9096 11.8564 10.8003C12.3228 10.66 12.6648 10.9138 12.7024 10.9433C12.8865 11.0966 13.1601 11.0716 13.3135 10.8876C13.467 10.7035 13.4422 10.4297 13.2581 10.276C13.2536 10.2731 12.984 10.0414 12.5509 9.93836V9.44836C12.5509 9.20855 12.3565 9.01416 12.1167 9.01416C11.8769 9.01416 11.6825 9.20855 11.6825 9.44836V9.94752C10.561 10.2357 10.3153 11.668 11.0677 12.2582C11.3509 12.4803 11.743 12.6686 12.421 12.9083C12.8829 13.0716 12.8728 13.4457 12.847 13.599C12.7951 13.9084 12.5348 14.2427 12.0863 14.2456C11.6505 14.2486 11.5149 14.2269 11.1798 14.0077C10.9791 13.8764 10.71 13.9327 10.5787 14.1334C10.4475 14.3341 10.5036 14.6032 10.7044 14.7345C11.0748 14.9768 11.3442 15.0696 11.6825 15.1006V15.5521C11.6825 15.7918 11.8769 15.9863 12.1167 15.9863C12.3565 15.9863 12.5509 15.7918 12.5509 15.5521V15.0481C13.1967 14.8599 13.6101 14.2977 13.7034 13.743C13.827 13.0077 13.428 12.3432 12.7105 12.0895Z" fill="#F0DCC0"/>
<path d="M23.0855 7.59791L19.1617 4.11016C18.8826 3.86188 18.439 4.06049 18.439 4.43468V5.74438H13.6415C13.4017 5.74438 13.2073 5.93881 13.2073 6.17858V7.38524C9.96637 6.69429 6.88559 9.16843 6.88559 12.5003C6.88559 13.3648 7.09662 14.1808 7.46956 14.8999H5.79209V13.5902C5.79209 13.2162 5.34881 13.0173 5.0694 13.2657L1.14566 16.7535C0.951488 16.9261 0.951402 17.2298 1.14566 17.4025L5.06945 20.8903C5.34682 21.1369 5.79214 20.9415 5.79214 20.5657V19.2561H10.5897C10.8295 19.2561 11.0239 19.0616 11.0239 18.8219V17.6152C14.2648 18.3061 17.3456 15.832 17.3456 12.5002C17.3456 11.6357 17.1345 10.8196 16.7616 10.1005H18.4391V11.4102C18.4391 11.7851 18.8839 11.9818 19.1617 11.7348L23.0855 8.24692C23.2797 8.07441 23.2797 7.77068 23.0855 7.59791ZM10.1555 18.3877H5.35793C5.11816 18.3877 4.92373 18.5821 4.92373 18.8219V19.5989L2.08767 17.078L4.92368 14.557V15.3341C4.92368 15.5739 5.11812 15.7683 5.35789 15.7683H8.03559C8.59167 16.4611 9.32014 17.0098 10.1554 17.3487V18.3877H10.1555ZM12.1156 16.8618C9.71058 16.8618 7.754 14.9052 7.754 12.5003C7.754 10.0953 9.71058 8.13871 12.1156 8.13871C14.5205 8.13871 16.4771 10.0953 16.4771 12.5003C16.4771 14.9052 14.5205 16.8618 12.1156 16.8618ZM19.3074 10.4434V9.66633C19.3074 9.42657 19.113 9.23213 18.8732 9.23213H16.1955C15.6394 8.53931 14.911 7.99065 14.0757 7.65171V6.6127H18.8732C19.113 6.6127 19.3074 6.41826 19.3074 6.1785V5.40157L22.1434 7.92248L19.3074 10.4434Z" fill="#F0DCC0"/>
</svg>
